<svg
  xmlns="http://www.w3.org/2000/svg"
  viewBox="0 0 32 32"
  width="32"
  height="32"
  aria-hidden="true"
>
  <defs>
    <linearGradient id="whatsappGradient" x1="0" y1="0" x2="1" y2="1">
      <stop offset="0" stop-color="#25D366" />
      <stop offset="1" stop-color="#128C7E" />
    </linearGradient>
  </defs>
  <rect x="1" y="1" width="30" height="30" rx="7" fill="url(#whatsappGradient)" />
  <path
    fill="#ffffff"
    d="M19.11 17.716c-.262-.13-1.55-.764-1.79-.85-.24-.087-.414-.13-.588.13-.173.26-.674.85-.826 1.025-.152.173-.304.195-.566.065-.262-.13-1.104-.406-2.102-1.295-.777-.692-1.302-1.547-1.455-1.81-.152-.26-.016-.4.114-.53.117-.116.262-.304.392-.456.13-.152.174-.26.262-.435.087-.173.043-.326-.022-.456-.065-.13-.588-1.416-.806-1.94-.212-.51-.427-.44-.588-.45-.152-.007-.326-.01-.5-.01s-.456.065-.695.326c-.24.26-.913.89-.913 2.17 0 1.282.935 2.522 1.064 2.696.13.173 1.84 2.808 4.456 3.936.622.268 1.108.428 1.487.548.625.2 1.194.17 1.644.104.5-.074 1.55-.633 1.77-1.244.217-.61.217-1.134.152-1.244-.065-.11-.24-.173-.5-.304z"
  />
  <path
    fill="#ffffff"
    d="M16.01 3C9.38 3 4 8.38 4 15.01c0 2.11.55 4.17 1.6 5.99L4 29l8.18-1.55a11.94 11.94 0 0 0 3.83.62c6.63 0 12.01-5.38 12.01-12.01C28.02 8.38 22.64 3 16.01 3zm0 21.82c-1.24 0-2.45-.24-3.58-.71l-.26-.11-4.86.92.92-4.74-.12-.27a9.79 9.79 0 0 1-1.02-4.4c0-5.4 4.4-9.8 9.8-9.8 5.4 0 9.8 4.4 9.8 9.8 0 5.4-4.4 9.31-9.68 9.31z"
  />
</svg>
